<svg width="600" height="200" xmlns="http://www.w3.org/2000/svg">
  <defs>
    <style>
      .process-step {
        fill: #e0f2fe;
        stroke: #0277bd;
        stroke-width: 2;
        rx: 6;
      }
      .step-text {
        font-family: -apple-system, BlinkMacSystemFont, "Segoe UI", Roboto, sans-serif;
        font-size: 12px;
        font-weight: 500;
        text-anchor: middle;
        fill: #01579b;
      }
      .arrow {
        stroke: #7c3aed;
        stroke-width: 2;
        fill: none;
        marker-end: url(#arrowhead);
      }
      .branch-arrow {
        stroke: #16a34a;
        stroke-width: 1.5;
        fill: none;
        marker-end: url(#greenarrow);
      }
      .title-text {
        font-family: -apple-system, BlinkMacSystemFont, "Segoe UI", Roboto, sans-serif;
        font-size: 16px;
        font-weight: 600;
        text-anchor: middle;
        fill: #1f2937;
      }
      .sub-text {
        font-family: -apple-system, BlinkMacSystemFont, "Segoe UI", Roboto, sans-serif;
        font-size: 10px;
        text-anchor: middle;
        fill: #16a34a;
      }
    </style>
    <marker id="arrowhead" markerWidth="8" markerHeight="6" 
            refX="7" refY="3" orient="auto">
      <polygon points="0 0, 8 3, 0 6" fill="#7c3aed" />
    </marker>
    <marker id="greenarrow" markerWidth="8" markerHeight="6" 
            refX="7" refY="3" orient="auto">
      <polygon points="0 0, 8 3, 0 6" fill="#16a34a" />
    </marker>
  </defs>
  
  <!-- Title -->
  <text x="300" y="25" class="title-text">认证流程</text>
  
  <!-- Flow -->
  <rect x="50" y="60" width="100" height="40" class="process-step"/>
  <text x="100" y="82" class="step-text">浏览器localStorage</text>
  
  <path d="M 150 80 L 180 80" class="arrow"/>
  
  <rect x="180" y="60" width="80" height="40" class="process-step"/>
  <text x="220" y="82" class="step-text">Token获取</text>
  
  <path d="M 260 80 L 290 80" class="arrow"/>
  
  <rect x="290" y="60" width="80" height="40" class="process-step"/>
  <text x="330" y="82" class="step-text">API验证</text>
  
  <path d="M 370 80 L 400 80" class="arrow"/>
  
  <rect x="400" y="60" width="80" height="40" class="process-step"/>
  <text x="440" y="82" class="step-text">UID获取</text>
  
  <!-- Branch -->
  <path d="M 330 100 L 330 130" class="branch-arrow"/>
  <rect x="260" y="130" width="140" height="30" class="process-step"/>
  <text x="330" y="148" class="step-text">用户信息缓存</text>
</svg>