<svg width="800" height="400" xmlns="http://www.w3.org/2000/svg">
  <defs>
    <style>
      .process-step {
        fill: #e0f2fe;
        stroke: #0277bd;
        stroke-width: 2;
        rx: 6;
      }
      .step-text {
        font-family: -apple-system, BlinkMacSystemFont, "Segoe UI", Roboto, sans-serif;
        font-size: 12px;
        font-weight: 500;
        text-anchor: middle;
        fill: #01579b;
      }
      .sub-text {
        font-family: -apple-system, BlinkMacSystemFont, "Segoe UI", Roboto, sans-serif;
        font-size: 9px;
        text-anchor: middle;
        fill: #0277bd;
      }
      .arrow {
        stroke: #7c3aed;
        stroke-width: 2;
        fill: none;
        marker-end: url(#arrowhead);
      }
      .branch-arrow {
        stroke: #16a34a;
        stroke-width: 1.5;
        fill: none;
        marker-end: url(#greenarrow);
      }
      .title-text {
        font-family: -apple-system, BlinkMacSystemFont, "Segoe UI", Roboto, sans-serif;
        font-size: 18px;
        font-weight: 600;
        text-anchor: middle;
        fill: #1f2937;
      }
    </style>
    <marker id="arrowhead" markerWidth="8" markerHeight="6" 
            refX="7" refY="3" orient="auto">
      <polygon points="0 0, 8 3, 0 6" fill="#7c3aed" />
    </marker>
    <marker id="greenarrow" markerWidth="8" markerHeight="6" 
            refX="7" refY="3" orient="auto">
      <polygon points="0 0, 8 3, 0 6" fill="#16a34a" />
    </marker>
  </defs>
  
  <!-- Title -->
  <text x="400" y="25" class="title-text">CLI处理流程</text>
  
  <!-- Main Flow -->
  <rect x="50" y="60" width="80" height="40" class="process-step"/>
  <text x="90" y="80" class="step-text">参数解析</text>
  
  <path d="M 130 80 L 160 80" class="arrow"/>
  
  <rect x="160" y="60" width="80" height="40" class="process-step"/>
  <text x="200" y="80" class="step-text">Token验证</text>
  
  <path d="M 240 80 L 270 80" class="arrow"/>
  
  <rect x="270" y="60" width="80" height="40" class="process-step"/>
  <text x="310" y="80" class="step-text">文件分析</text>
  
  <path d="M 350 80 L 380 80" class="arrow"/>
  
  <rect x="380" y="60" width="80" height="40" class="process-step"/>
  <text x="420" y="80" class="step-text">服务器选择</text>
  
  <path d="M 460 80 L 490 80" class="arrow"/>
  
  <rect x="490" y="60" width="80" height="40" class="process-step"/>
  <text x="530" y="80" class="step-text">上传处理</text>
  
  <path d="M 570 80 L 600 80" class="arrow"/>
  
  <rect x="600" y="60" width="80" height="40" class="process-step"/>
  <text x="640" y="80" class="step-text">状态更新</text>
  
  <!-- Branch Details -->
  <path d="M 90 100 L 90 130" class="branch-arrow"/>
  <text x="90" y="145" class="sub-text">命令行参数验证</text>
  
  <path d="M 200 100 L 200 130" class="branch-arrow"/>
  <text x="200" y="145" class="sub-text">UID获取</text>
  <text x="200" y="155" class="sub-text">Token有效性验证</text>
  
  <path d="M 310 100 L 310 130" class="branch-arrow"/>
  <text x="310" y="145" class="sub-text">SHA1计算</text>
  <text x="310" y="155" class="sub-text">文件大小获取</text>
  
  <path d="M 420 100 L 420 130" class="branch-arrow"/>
  <text x="420" y="145" class="sub-text">上传服务器发现</text>
  
  <path d="M 530 100 L 530 130" class="branch-arrow"/>
  <text x="530" y="145" class="sub-text">分片上传</text>
  <text x="530" y="155" class="sub-text">秒传检查</text>
  
  <path d="M 640 100 L 640 130" class="branch-arrow"/>
  <text x="640" y="145" class="sub-text">JSON状态文件</text>
  
  <!-- Upload States Flow -->
  <text x="400" y="220" class="title-text" style="font-size: 16px;">上传状态流转</text>
  
  <rect x="50" y="250" width="80" height="40" class="process-step"/>
  <text x="90" y="270" class="step-text">准备阶段</text>
  
  <path d="M 130 270 L 160 270" class="arrow"/>
  
  <rect x="160" y="250" width="80" height="40" class="process-step"/>
  <text x="200" y="270" class="step-text">服务器查询</text>
  
  <!-- Multiple outcomes -->
  <path d="M 240 270 L 300 240" class="branch-arrow"/>
  <rect x="300" y="220" width="100" height="30" class="process-step"/>
  <text x="350" y="237" class="step-text">秒传成功 (1/6/8)</text>
  
  <path d="M 240 270 L 300 270" class="branch-arrow"/>
  <rect x="300" y="255" width="100" height="30" class="process-step"/>
  <text x="350" y="272" class="step-text">等待重试 (2)</text>
  
  <path d="M 240 270 L 300 300" class="branch-arrow"/>
  <rect x="300" y="290" width="100" height="30" class="process-step"/>
  <text x="350" y="307" class="step-text">分片上传 (3)</text>
  
  <path d="M 240 270 L 300 330" class="branch-arrow"/>
  <rect x="300" y="320" width="100" height="30" class="process-step"/>
  <text x="350" y="337" class="step-text">上传失败 (7)</text>
</svg>