<svg width="700" height="200" xmlns="http://www.w3.org/2000/svg">
  <defs>
    <style>
      .process-step {
        fill: #e0f2fe;
        stroke: #0277bd;
        stroke-width: 2;
        rx: 6;
      }
      .step-text {
        font-family: -apple-system, BlinkMacSystemFont, "Segoe UI", Roboto, sans-serif;
        font-size: 12px;
        font-weight: 500;
        text-anchor: middle;
        fill: #01579b;
      }
      .arrow {
        stroke: #7c3aed;
        stroke-width: 2;
        fill: none;
        marker-end: url(#arrowhead);
      }
      .branch-arrow {
        stroke: #16a34a;
        stroke-width: 1.5;
        fill: none;
        marker-end: url(#greenarrow);
      }
      .title-text {
        font-family: -apple-system, BlinkMacSystemFont, "Segoe UI", Roboto, sans-serif;
        font-size: 16px;
        font-weight: 600;
        text-anchor: middle;
        fill: #1f2937;
      }
      .sub-text {
        font-family: -apple-system, BlinkMacSystemFont, "Segoe UI", Roboto, sans-serif;
        font-size: 9px;
        text-anchor: middle;
        fill: #16a34a;
      }
    </style>
    <marker id="arrowhead" markerWidth="8" markerHeight="6" 
            refX="7" refY="3" orient="auto">
      <polygon points="0 0, 8 3, 0 6" fill="#7c3aed" />
    </marker>
    <marker id="greenarrow" markerWidth="8" markerHeight="6" 
            refX="7" refY="3" orient="auto">
      <polygon points="0 0, 8 3, 0 6" fill="#16a34a" />
    </marker>
  </defs>
  
  <!-- Title -->
  <text x="350" y="25" class="title-text">文件上传流程</text>
  
  <!-- Main Flow -->
  <rect x="50" y="60" width="80" height="40" class="process-step"/>
  <text x="90" y="82" class="step-text">文件选择</text>
  
  <path d="M 130 80 L 160 80" class="arrow"/>
  
  <rect x="160" y="60" width="80" height="40" class="process-step"/>
  <text x="200" y="82" class="step-text">SHA1计算</text>
  
  <path d="M 240 80 L 270 80" class="arrow"/>
  
  <rect x="270" y="60" width="80" height="40" class="process-step"/>
  <text x="310" y="82" class="step-text">上传准备</text>
  
  <path d="M 350 80 L 380 80" class="arrow"/>
  
  <rect x="380" y="60" width="80" height="40" class="process-step"/>
  <text x="420" y="82" class="step-text">服务器分配</text>
  
  <path d="M 460 80 L 490 80" class="arrow"/>
  
  <rect x="490" y="60" width="80" height="40" class="process-step"/>
  <text x="530" y="82" class="step-text">分片上传</text>
  
  <!-- Branch Details -->
  <path d="M 90 100 L 90 130" class="branch-arrow"/>
  <text x="90" y="145" class="sub-text">文件大小/类型验证</text>
  
  <path d="M 200 100 L 200 130" class="branch-arrow"/>
  <text x="200" y="145" class="sub-text">文件完整性校验</text>
  
  <path d="M 310 100 L 310 130" class="branch-arrow"/>
  <text x="310" y="145" class="sub-text">Uptoken生成</text>
  
  <path d="M 420 100 L 420 130" class="branch-arrow"/>
  <text x="420" y="145" class="sub-text">服务器URL获取</text>
  
  <path d="M 530 100 L 530 130" class="branch-arrow"/>
  <text x="530" y="145" class="sub-text">进度回调</text>
</svg>